<?xml version="1.0" encoding="UTF-8"?>
<svg width="400" height="400" viewBox="0 0 400 400" xmlns="http://www.w3.org/2000/svg">
    <style>
        .chakra { fill: none; stroke: #FFD700; stroke-width: 2; }
        .figure { fill: none; stroke: #FFFFFF; stroke-width: 2; }
    </style>
    
    <!-- Meditation figure -->
    <path class="figure" d="M200,150 C180,150 170,160 170,180 C170,200 180,220 200,220 C220,220 230,200 230,180 C230,160 220,150 200,150 Z"/>
    <path class="figure" d="M200,220 L200,280 Q200,300 180,310 L160,320"/>
    <path class="figure" d="M200,280 Q200,300 220,310 L240,320"/>
    
    <!-- Chakra circles -->
    <circle class="chakra" cx="200" cy="200" r="30"/>
    <circle class="chakra" cx="200" cy="200" r="60"/>
    <circle class="chakra" cx="200" cy="200" r="90"/>
    <circle class="chakra" cx="200" cy="200" r="120"/>
    <circle class="chakra" cx="200" cy="200" r="150"/>
    
    <!-- Energy lines -->
    <path class="chakra" d="M50,200 Q200,150 350,200"/>
    <path class="chakra" d="M50,220 Q200,270 350,220"/>
    
    <!-- Chakra points -->
    <circle class="chakra" cx="200" cy="140" r="5" fill="#FFD700"/>
    <circle class="chakra" cx="200" cy="170" r="5" fill="#FFD700"/>
    <circle class="chakra" cx="200" cy="200" r="5" fill="#FFD700"/>
    <circle class="chakra" cx="200" cy="230" r="5" fill="#FFD700"/>
    <circle class="chakra" cx="200" cy="260" r="5" fill="#FFD700"/>
</svg> 