<?xml version="1.0" encoding="UTF-8"?>
<svg width="200" height="200" viewBox="0 0 200 200" xmlns="http://www.w3.org/2000/svg">
    <style>
        .dove { fill: #FFFFFF; stroke: #FFFFFF; stroke-width: 1; }
    </style>
    
    <!-- Dove body -->
    <path class="dove" d="M100,50 C120,50 140,60 150,80 C160,100 160,120 150,140 C140,160 120,170 100,170 C80,170 60,160 50,140 C40,120 40,100 50,80 C60,60 80,50 100,50 Z"/>
    
    <!-- Wings -->
    <path class="dove" d="M100,90 C120,90 140,100 150,120 C140,130 120,140 100,140 C80,140 60,130 50,120 C60,100 80,90 100,90 Z"/>
    <path class="dove" d="M100,80 L150,40 C140,50 120,60 100,60 C80,60 60,50 50,40 L100,80 Z"/>
    
    <!-- Head -->
    <circle class="dove" cx="100" cy="70" r="15"/>
    
    <!-- Beak -->
    <path class="dove" d="M95,65 L85,60 L95,70 Z"/>
    
    <!-- Eye -->
    <circle cx="97" cy="67" r="2" fill="#000000"/>
    
    <!-- Olive branch -->
    <path d="M85,75 C95,70 105,70 115,75" stroke="#4CAF50" stroke-width="2" fill="none"/>
    <circle cx="115" cy="75" r="3" fill="#4CAF50"/>
</svg> 